<svg width="136" height="45" viewBox="0 0 136 45" fill="none" xmlns="http://www.w3.org/2000/svg">
<path d="M35.6044 24.5729C35.6044 22.8473 35.9255 21.3325 36.5675 20.0283C37.2297 18.7241 38.1225 17.7209 39.2461 17.0186C40.3698 16.3163 41.6238 15.9652 43.0082 15.9652C44.1921 15.9652 45.2254 16.206 46.1082 16.6875C47.0111 17.1691 47.7033 17.8011 48.1849 18.5836V16.206H53.3314V33H48.1849V30.6224C47.6833 31.4049 46.981 32.0369 46.0781 32.5185C45.1953 33 44.162 33.2408 42.9781 33.2408C41.6138 33.2408 40.3698 32.8896 39.2461 32.1874C38.1225 31.4651 37.2297 30.4518 36.5675 29.1476C35.9255 27.8233 35.6044 26.2984 35.6044 24.5729ZM48.1849 24.603C48.1849 23.3189 47.8237 22.3056 47.1014 21.5632C46.3992 20.8208 45.5364 20.4496 44.5131 20.4496C43.4898 20.4496 42.617 20.8208 41.8947 21.5632C41.1924 22.2855 40.8413 23.2888 40.8413 24.5729C40.8413 25.857 41.1924 26.8803 41.8947 27.6428C42.617 28.3852 43.4898 28.7564 44.5131 28.7564C45.5364 28.7564 46.3992 28.3852 47.1014 27.6428C47.8237 26.9004 48.1849 25.8871 48.1849 24.603ZM62.2013 18.5836C62.7029 17.8011 63.3951 17.1691 64.278 16.6875C65.1608 16.206 66.1941 15.9652 67.378 15.9652C68.7624 15.9652 70.0164 16.3163 71.1401 17.0186C72.2637 17.7209 73.1465 18.7241 73.7886 20.0283C74.4507 21.3325 74.7818 22.8473 74.7818 24.5729C74.7818 26.2984 74.4507 27.8233 73.7886 29.1476C73.1465 30.4518 72.2637 31.4651 71.1401 32.1874C70.0164 32.8896 68.7624 33.2408 67.378 33.2408C66.2142 33.2408 65.1809 33 64.278 32.5185C63.3951 32.0369 62.7029 31.4149 62.2013 30.6524V41.0058H57.0548V16.206H62.2013V18.5836ZM69.5449 24.5729C69.5449 23.2888 69.1838 22.2855 68.4614 21.5632C67.7592 20.8208 66.8864 20.4496 65.843 20.4496C64.8197 20.4496 63.9469 20.8208 63.2246 21.5632C62.5223 22.3056 62.1712 23.3189 62.1712 24.603C62.1712 25.8871 62.5223 26.9004 63.2246 27.6428C63.9469 28.3852 64.8197 28.7564 65.843 28.7564C66.8663 28.7564 67.7391 28.3852 68.4614 27.6428C69.1838 26.8803 69.5449 25.857 69.5449 24.5729ZM82.6283 18.5836C83.1299 17.8011 83.8222 17.1691 84.705 16.6875C85.5879 16.206 86.6212 15.9652 87.805 15.9652C89.1894 15.9652 90.4435 16.3163 91.5671 17.0186C92.6907 17.7209 93.5735 18.7241 94.2156 20.0283C94.8777 21.3325 95.2088 22.8473 95.2088 24.5729C95.2088 26.2984 94.8777 27.8233 94.2156 29.1476C93.5735 30.4518 92.6907 31.4651 91.5671 32.1874C90.4435 32.8896 89.1894 33.2408 87.805 33.2408C86.6412 33.2408 85.6079 33 84.705 32.5185C83.8222 32.0369 83.1299 31.4149 82.6283 30.6524V41.0058H77.4818V16.206H82.6283V18.5836ZM89.972 24.5729C89.972 23.2888 89.6108 22.2855 88.8885 21.5632C88.1862 20.8208 87.3134 20.4496 86.27 20.4496C85.2468 20.4496 84.374 20.8208 83.6516 21.5632C82.9494 22.3056 82.5982 23.3189 82.5982 24.603C82.5982 25.8871 82.9494 26.9004 83.6516 27.6428C84.374 28.3852 85.2468 28.7564 86.27 28.7564C87.2933 28.7564 88.1661 28.3852 88.8885 27.6428C89.6108 26.8803 89.972 25.857 89.972 24.5729ZM100.497 14.4604C99.5942 14.4604 98.8518 14.1995 98.27 13.6779C97.7082 13.1361 97.4273 12.474 97.4273 11.6915C97.4273 10.8889 97.7082 10.2267 98.27 9.70507C98.8518 9.16333 99.5942 8.89246 100.497 8.89246C101.38 8.89246 102.102 9.16333 102.664 9.70507C103.246 10.2267 103.537 10.8889 103.537 11.6915C103.537 12.474 103.246 13.1361 102.664 13.6779C102.102 14.1995 101.38 14.4604 100.497 14.4604ZM103.055 16.206V33H97.9088V16.206H103.055ZM115.212 20.4797H112.443V33H107.297V20.4797H105.431V16.206H107.297V15.7244C107.297 13.6578 107.889 12.0928 109.072 11.0293C110.256 9.94585 111.992 9.4041 114.279 9.4041C114.66 9.4041 114.941 9.41414 115.122 9.4342V13.7982C114.139 13.738 113.446 13.8785 113.045 14.2196C112.644 14.5607 112.443 15.1727 112.443 16.0555V16.206H115.212V20.4797ZM134.786 16.206L124.252 40.9757H118.714L122.566 32.4282L115.734 16.206H121.483L125.365 26.7098L129.218 16.206H134.786Z" fill="white"/>
<path d="M29.5941 30.5024L18.2701 10.8884C16.8391 8.40895 13.2601 8.40895 11.8291 10.8884L0.503637 30.5024C-0.927344 32.9819 0.861383 36.0808 3.72335 36.0808H3.73419L12.2968 21.2506C13.0278 19.9853 14.6446 19.5517 15.9099 20.2827C17.1752 21.0137 17.6088 22.6305 16.8778 23.8958L9.84219 36.0808H14.8708L19.2442 28.5062C19.9752 27.2409 21.592 26.8073 22.8573 27.5383C24.1226 28.2692 24.5562 29.8861 23.8252 31.1513L20.9788 36.0808H26.3728C29.2348 36.0808 31.0251 32.9819 29.5925 30.5024H29.5941Z" fill="url(#paint0_linear_2130_16394)"/>
<defs>
<linearGradient id="paint0_linear_2130_16394" x1="0.00031576" y1="22.5546" x2="30.0974" y2="22.5546" gradientUnits="userSpaceOnUse">
<stop stop-color="#FDB738"/>
<stop offset="1" stop-color="#FD4238"/>
</linearGradient>
</defs>
</svg>
